<svg width="24" height="24" viewBox="0 0 24 24" fill="none" xmlns="http://www.w3.org/2000/svg">
    <path d="M20.7999 2.6499C22.0149 2.6499 22.9999 3.6349 22.9999 4.84995V19.1502C22.9999 20.3653 22.0149 21.3503 20.7999 21.3503H3.19999C1.98497 21.3503 1 20.3653 1 19.1502V4.84995C1 3.6349 1.98497 2.6499 3.19999 2.6499H20.7999ZM3.19999 15.8502V19.1502H6.49998V15.8502H3.19999ZM8.69997 15.8502V19.1502H20.7999V15.8502H8.69997ZM3.19999 13.6501H6.49998V10.3501H3.19999V13.6501ZM8.69997 13.6501H20.7999V10.3501H8.69997V13.6501ZM3.19999 8.15001H6.49998V4.84995H3.19999V8.15001ZM8.69997 8.15001H20.7999V4.84995H8.69997V8.15001Z" fill="#000000"/>
</svg>
