<svg width="24" height="24" viewBox="0 0 24 24" fill="none" xmlns="http://www.w3.org/2000/svg">
    <path d="M20.4103 20.4103C19.6282 21.1923 18.3603 21.1923 17.5783 20.4103L11.9984 14.8304L6.41848 20.4103C5.63646 21.1923 4.36854 21.1923 3.58652 20.4103C2.80449 19.6283 2.80449 18.3603 3.58652 17.5783L9.16644 11.9984L3.58652 6.41848C2.80449 5.63646 2.80449 4.36854 3.58652 3.58652C4.36854 2.80449 5.63646 2.80449 6.41848 3.58652L11.9984 9.16644L17.5783 3.58654C18.3603 2.80451 19.6282 2.80451 20.4103 3.58654C21.1923 4.36856 21.1923 5.63648 20.4103 6.4185L14.8304 11.9984L20.4103 17.5783C21.1923 18.3603 21.1923 19.6282 20.4103 20.4103Z" fill="#000000"/>
</svg>
