<svg width="24" height="24" viewBox="0 0 24 24" fill="none" xmlns="http://www.w3.org/2000/svg">
    <path d="M1.82159 1.80752C2.22985 1.39749 2.89163 1.3975 3.2999 1.80752L5.07937 3.59476H5.08754L9.26926 7.79472H9.26109L11.352 9.8947H11.3611L21.2335 19.8101L21.4683 20.047L21.4632 20.0501L22.1136 20.7032C22.5216 21.1133 22.5218 21.778 22.1136 22.188C21.7054 22.5978 21.0435 22.5978 20.6353 22.188L18.8497 20.3946H3.59188C2.43713 20.3946 1.5 19.4544 1.5 18.2946V5.69474C1.50014 4.95496 1.88198 4.30506 2.45763 3.93109L1.82159 3.29228C1.41339 2.88227 1.41347 2.21758 1.82159 1.80752ZM21.6082 9.90905C22.8366 10.0555 23.6942 11.2624 23.3856 12.5043L22.0911 17.7019L14.3178 9.8947H21.357L21.6082 9.90905ZM3.59188 7.79472V17.1164L4.99362 11.4851C5.22673 10.5509 6.06327 9.89478 7.0222 9.8947H8.39535L6.30449 7.79472H3.59188ZM10.135 3.59476C10.6893 3.59493 11.2214 3.81632 11.6133 4.20999L13.0916 5.69474H20.3188C21.4732 5.69502 22.4094 6.63529 22.4096 7.79472V7.7978H20.3188V7.79472H12.2269L8.04517 3.59476H10.135Z" fill="#000000"/>
</svg>
