<svg width="24" height="24" viewBox="0 0 24 24" fill="none" xmlns="http://www.w3.org/2000/svg">
    <path d="M10.1342 3.58984C10.6887 3.58988 11.2204 3.81128 11.6125 4.20508L13.0909 5.68984H20.3182C21.473 5.68984 22.4091 6.63005 22.4091 7.78984V7.79292H20.3182V7.78984H3.59091V17.1117L4.99268 11.4802C5.22562 10.5458 6.06219 9.88993 7.02131 9.88984H21.3565L21.6076 9.9042C22.8365 10.0504 23.6941 11.2572 23.3851 12.4995L21.8169 18.7995C21.5842 19.7341 20.7476 20.3898 19.7883 20.3898H3.59091C2.43613 20.3898 1.5 19.4496 1.5 18.2898V5.68984C1.5 4.53005 2.43613 3.58984 3.59091 3.58984H10.1342Z" fill="#000000"/>
</svg>
