<svg width="24" height="24" viewBox="0 0 24 24" fill="none" xmlns="http://www.w3.org/2000/svg">
    <path d="M1.82159 1.80753C2.22985 1.39748 2.89163 1.3975 3.2999 1.80753L5.07937 3.59477H5.08754L7.1784 5.69475H7.17023L19.7154 18.2946H19.7246L21.4683 20.047L21.4632 20.0501L22.1136 20.7033C22.5216 21.1133 22.5218 21.778 22.1136 22.188C21.7054 22.5979 21.0435 22.5978 20.6353 22.188L18.8497 20.3946H3.59188C2.43713 20.3946 1.5 19.4544 1.5 18.2946V5.69475C1.50014 4.95496 1.88198 4.30507 2.45763 3.93109L1.82159 3.29228C1.41339 2.88228 1.41347 2.21758 1.82159 1.80753ZM3.59188 5.69475V18.2946H16.7588L4.21363 5.69475H3.59188ZM10.135 3.59477C10.6893 3.59494 11.2214 3.81632 11.6133 4.21L13.0916 5.69475H20.3188C21.4732 5.69503 22.4094 6.6353 22.4096 7.79473V18.0219L20.3188 15.9219V7.79473H13.0916C12.5418 7.79468 12.0146 7.5764 11.6235 7.18873L8.04517 3.59477H10.135Z" fill="#000000"/>
</svg>
