<svg width="24" height="24" viewBox="0 0 24 24" fill="none" xmlns="http://www.w3.org/2000/svg">
    <path d="M20.7998 2.6499C22.0148 2.6499 23 3.63505 23 4.8501V11.4819C21.8323 10.4365 20.2903 9.80029 18.5996 9.80029C17.6616 9.80034 16.7699 9.99729 15.9619 10.3501H8.7002V13.6499H12.6006C12.2886 14.3293 12.0888 15.0702 12.0244 15.8501H8.7002V19.1499H12.5996C12.9873 19.9946 13.5479 20.7427 14.2363 21.3501H3.2002C1.98517 21.3501 1 20.365 1 19.1499V4.8501C1 3.63505 1.98517 2.6499 3.2002 2.6499H20.7998ZM18.5996 11.4497C19.3339 11.4497 19.9297 12.0547 19.9297 12.8003V13.062C20.2376 13.1886 20.5237 13.3577 20.7812 13.562L21.0059 13.4312C21.6417 13.0585 22.4542 13.2796 22.8213 13.9253C23.1883 14.571 22.9707 15.3962 22.335 15.769L22.1113 15.8999C22.1337 16.0634 22.1455 16.2306 22.1455 16.3999C22.1455 16.5693 22.1337 16.7364 22.1113 16.8999L22.335 17.0308C22.9708 17.4036 23.1884 18.2298 22.8213 18.8755C22.4541 19.5208 21.6415 19.742 21.0059 19.3696L20.7812 19.2378C20.5236 19.4422 20.2377 19.6122 19.9297 19.7388V20.0005C19.9295 20.7459 19.3338 21.3501 18.5996 21.3501C17.8656 21.3499 17.2707 20.7458 17.2705 20.0005V19.7388C16.9624 19.6121 16.6756 19.4423 16.418 19.2378L16.1943 19.3696C15.5585 19.7423 14.7451 19.521 14.3779 18.8755C14.0108 18.2298 14.2294 17.4036 14.8652 17.0308L15.0889 16.8999C15.0665 16.7364 15.0547 16.5693 15.0547 16.3999C15.0547 16.2308 15.0665 16.0642 15.0889 15.9009L14.8652 15.769C14.2295 15.3963 14.0111 14.571 14.3779 13.9253C14.7451 13.2796 15.5585 13.0584 16.1943 13.4312L16.418 13.562C16.6756 13.3575 16.9624 13.1886 17.2705 13.062V12.8003C17.2705 12.0548 17.8655 11.4499 18.5996 11.4497ZM3.2002 19.1499H6.5V15.8501H3.2002V19.1499ZM18.6006 15.0503C17.8664 15.0503 17.2706 15.6544 17.2705 16.3999C17.2705 17.1455 17.8663 17.7505 18.6006 17.7505C19.3346 17.7502 19.9297 17.1453 19.9297 16.3999C19.9296 15.6545 19.3346 15.0505 18.6006 15.0503ZM3.2002 13.6499H6.5V10.3501H3.2002V13.6499ZM3.2002 8.1499H6.5V4.8501H3.2002V8.1499ZM8.7002 8.1499H20.7998V4.8501H8.7002V8.1499Z" fill="#000000"/>
</svg>
